# xmcd CD database file
#
# Track frame offsets:
#	150
#	23187
#	52540
#
# Disc length: 993 seconds
#
# Revision: 1
# Processed by: cddbd v1.5.2PL0 Copyright (c) Steve Scherf et al.
# Submitted via: CDex 1.51
#
DISCID=1503df03
DTITLE=Babyface - Gone Too Soon
DYEAR=1997
DGENRE=Pop
TTITLE0=Gone Too Soon with Stevie Wonder
TTITLE1=Talk To Me 6:31
TTITLE2=Talk To Me 4:54
EXTD=YEAR: 1997
EXTT0=
EXTT1=
EXTT2=
PLAYORDER=
